<svg t="1620005347699" class="icon" viewBox="0 0 1024 1024" version="1.1" xmlns="http://www.w3.org/2000/svg" p-id="3711" width="200" height="200"><path d="M61.6 874.4c0 41.6 33.6 75.2 75.2 75.2h750.4c41.6 0 75.2-33.6 75.2-75.2V668c0-41.6-33.6-75.2-75.2-75.2H562.4V396c0-25.6-20.8-47.2-47.2-47.2s-47.2 20.8-47.2 47.2v196.8H136.8c-41.6 0-75.2 33.6-75.2 75.2v206.4z m93.6-103.2c0-25.6 20.8-47.2 47.2-47.2s47.2 20.8 47.2 47.2-20.8 47.2-47.2 47.2-47.2-21.6-47.2-47.2z m168.8 0c0-25.6 20.8-47.2 47.2-47.2s47.2 20.8 47.2 47.2-20.8 47.2-47.2 47.2-47.2-21.6-47.2-47.2z m191.2-572c-108.8 0-196.8 88-196.8 196.8 0 25.6 20.8 47.2 47.2 47.2s47.2-20.8 47.2-47.2c0-56.8 46.4-103.2 103.2-103.2s103.2 46.4 103.2 103.2c0 25.6 20.8 47.2 47.2 47.2s47.2-20.8 47.2-47.2C712 287.2 624 199.2 515.2 199.2z m0-149.6C323.2 49.6 168 204.8 168 396.8c0 25.6 20.8 47.2 47.2 47.2s47.2-20.8 47.2-47.2C262.4 256.8 376 144 515.2 144s253.6 112 253.6 252c0 25.6 20.8 47.2 47.2 47.2s47.2-20.8 47.2-47.2c-0.8-191.2-156-346.4-348-346.4z" p-id="3712" fill="#ffffff"></path></svg>